[center][img]http://www.ultraimg.com/images/sprRl.jpg[/img]

[b]Title:[/b] Man of Steel
[b]Year:[/b] 2013
[b]Genre:[/b]  Action, Adventure, Fantasy, Sci-Fi
[b]Rating:[/b] N/A (N/A votes)
[b]Runtime:[/b] 2 h 28 min
[b]Director:[/b] Zack Snyder
[b]Cast:[/b] Henry Cavill, Russell Crowe, Amy Adams, Michael Shannon
[b]Plot:[/b] 
[code]A young journalist, molded by the morals of his earth parents, discovers that he is gifted with powers beyond his imagination, and he uses those powers to defend his adopted home from an insidious evil.[/code]
[b]Imdb Url:[/b] 
[code]http://www.imdb.com/title/tt0770828/[/code]
[b]Movie Trailer:[/b] 

[img]http://www.ultraimg.com/images/n0wGq.gif[/img]

IMDB Link - http://www.imdb.com/title/tt0770828/

Source - Man.Of.Steel.2013.FULL.ViDEO.ENG.AUDiO.CAMRip-0HKAY (Thumbs Up + Respect)

NOTES - Enjoy. Cropped black bars, Resized and ran a few filters over it.  But its still a CAM after all and an average one at that.

General
Complete name                            : Man Of Steel 2013 CAM AAC x264-SSDD.mp4
Format                                   : MPEG-4
Format profile                           : Base Media
Codec ID                                 : isom
File size                                : 550 MiB
Duration                                 : 2h 12mn
Overall bit rate mode                    : Variable
Overall bit rate                         : 581 Kbps

Video
ID                                       : 1
Format                                   : AVC
Format/Info                              : Advanced Video Codec
Format profile                           : High@L4.1
Format settings, CABAC                   : Yes
Format settings, ReFrames                : 4 frames
Codec ID                                 : avc1
Codec ID/Info                            : Advanced Video Coding
Duration                                 : 2h 12mn
Bit rate                                 : 513 Kbps
Maximum bit rate                         : 1 243 Kbps
Width                                    : 720 pixels
Height                                   : 304 pixels
Display aspect ratio                     : 2.35:1
Frame rate mode                          : Constant
Frame rate                               : 29.970 fps
Color space                              : YUV
Chroma subsampling                       : 4:2:0
Bit depth                                : 8 bits
Scan type                                : Progressive
Bits/(Pixel*Frame)                       : 0.078
Stream size                              : 487 MiB (88%)
Writing library                          : x264 core 133 r2334 a3ac64b

Audio
ID                                       : 2
Format                                   : AAC
Format/Info                              : Advanced Audio Codec
Format profile                           : LC
Codec ID                                 : 40
Duration                                 : 2h 12mn
Bit rate mode                            : Variable
Bit rate                                 : 64.0 Kbps
Maximum bit rate                         : 67.2 Kbps
Channel(s)                               : 2 channels
Channel positions                        : Front: L R
Sampling rate                            : 48.0 KHz
Compression mode                         : Lossy
Stream size                              : 60.7 MiB (11%)

[img]http://www.ultraimg.com/images/Zazxs.png[/img]
[img]http://www.ultraimg.com/images/FhfjJ.png[/img]
[img]http://www.ultraimg.com/images/6p3jM.png[/img]

[/center]